<svg width="18" height="15" viewBox="0 0 18 15" fill="none" xmlns="http://www.w3.org/2000/svg">
<path d="M17.0474 5.35891C16.992 5.65707 16.953 5.95897 16.8779 6.25227C16.6792 7.0283 16.2802 7.71429 15.782 8.34947C15.0132 9.32951 14.0783 10.1579 13.1135 10.9567C11.9759 11.8982 10.8325 12.8331 9.68945 13.7686C9.25072 14.1277 8.77895 14.1434 8.35596 13.7944C6.86902 12.5678 5.37814 11.3445 3.9089 10.0984C3.15382 9.45804 2.47507 8.74403 1.92224 7.931C0.930679 6.47346 0.661935 4.91242 1.28992 3.27143C1.8581 1.78736 2.96141 0.816284 4.61755 0.512147C6.33428 0.197175 7.71696 0.782285 8.81515 2.04031C8.86866 2.10158 8.91824 2.16585 8.97018 2.22824C8.97647 2.23572 8.98591 2.24095 9.01149 2.26112C9.0709 2.18901 9.12953 2.11578 9.19052 2.04442C9.82716 1.30313 10.6031 0.760239 11.5958 0.536807C13.3267 0.146734 15.1643 0.834219 16.1637 2.23273C16.6571 2.92357 16.9306 3.68579 17.0187 4.51263C17.0242 4.56606 17.0372 4.61874 17.0471 4.6718C17.0474 4.90084 17.0474 5.12987 17.0474 5.35891ZM9.00047 13.1421C9.03982 13.1122 9.06894 13.092 9.09609 13.0696C10.2734 12.1037 11.4546 11.142 12.626 10.1698C13.4751 9.46551 14.2943 8.73095 14.9793 7.87383C15.518 7.1998 15.9371 6.47084 16.0543 5.61672C16.2129 4.45883 15.967 3.39771 15.1761 2.48082C14.0189 1.1391 11.6592 0.789383 10.1608 2.36051C9.9334 2.59889 9.74099 2.8679 9.54111 3.12907C9.43605 3.26619 9.32194 3.38202 9.14134 3.4205C8.86748 3.47879 8.64438 3.38538 8.4681 3.12235C8.21352 2.74236 7.91723 2.39899 7.56429 2.0956C6.19538 0.918286 4.05881 1.1264 2.91576 2.39862C1.77075 3.67308 1.62634 5.131 2.27243 6.66438C2.59429 7.42809 3.13886 8.05766 3.722 8.65473C4.57859 9.53239 5.53552 10.3081 6.48734 11.0886C7.31994 11.7708 8.1545 12.4508 9.00047 13.1421Z" fill="#00995D"/>
</svg>

